<?xml version="1.0" standalone="no"?>
<!DOCTYPE svg PUBLIC "-//W3C//DTD SVG 20010904//EN"
 "http://www.w3.org/TR/2001/REC-SVG-20010904/DTD/svg10.dtd">
<svg version="1.0" xmlns="http://www.w3.org/2000/svg"
 width="200.000000pt" height="204.000000pt" viewBox="0 0 200.000000 204.000000"
 preserveAspectRatio="xMidYMid meet">
<metadata>
Created by potrace 1.10, written by Peter Selinger 2001-2011
</metadata>
<g transform="translate(0.000000,204.000000) scale(0.100000,-0.100000)"
fill="#000000" stroke="none">
<path d="M1291 1979 c-20 -50 -61 -189 -61 -209 0 -12 4 -18 11 -15 6 4 8 9 5
12 -2 3 0 17 6 32 17 45 57 195 53 199 -2 3 -9 -6 -14 -19z"/>
<path d="M1450 1898 c-37 -53 -92 -108 -103 -101 -6 4 -8 0 -4 -10 4 -10 2
-16 -4 -14 -6 1 -15 -9 -20 -22 -8 -20 -7 -22 8 -16 10 4 23 8 30 8 6 0 10 8
8 18 -2 9 10 30 27 45 36 35 92 113 85 120 -3 3 -15 -10 -27 -28z"/>
<path d="M832 1888 c-23 -13 -76 -54 -118 -92 -41 -38 -86 -78 -99 -88 -27
-21 -41 -59 -50 -136 -9 -71 -31 -83 -75 -42 -34 31 -77 39 -98 18 -15 -15
-15 -60 0 -94 12 -25 10 -28 -27 -58 -57 -45 -87 -78 -78 -87 5 -5 39 -4 78 2
113 16 199 4 275 -38 36 -20 81 -45 100 -55 55 -29 125 -21 105 12 -5 8 -11 8
-19 1 -16 -13 -69 1 -116 31 -19 12 -60 33 -90 46 -30 13 -61 26 -69 29 -9 4
-12 2 -7 -5 4 -7 -5 -9 -31 -5 -21 3 -39 6 -40 7 -1 1 17 20 39 44 34 37 42
41 55 30 12 -10 60 -13 182 -13 136 1 183 5 261 23 100 24 231 67 265 88 11 6
54 18 95 25 76 12 123 28 87 29 -11 0 -15 5 -11 11 4 7 23 9 48 6 41 -5 41 -5
8 5 -35 12 -38 29 -6 34 24 4 134 -26 134 -36 0 -9 -44 -26 -155 -61 -79 -24
-235 -103 -270 -135 -13 -12 -26 -20 -28 -18 -2 2 -12 -6 -23 -18 -13 -14 24
1 109 45 70 36 143 69 161 73 29 5 36 2 48 -19 7 -14 27 -45 44 -68 62 -88 91
-228 95 -458 1 -112 -2 -131 -25 -131 -19 0 -26 46 -26 162 0 108 -34 273 -72
356 -23 48 -74 92 -107 92 -19 0 -104 -37 -290 -128 -75 -36 -111 -94 -111
-179 0 -76 24 -109 102 -143 67 -29 130 -24 195 16 56 35 82 75 89 141 7 60
-25 127 -75 160 -50 34 -61 28 -13 -7 23 -16 48 -43 57 -59 19 -38 19 -121 0
-167 -18 -45 -97 -84 -169 -84 -57 0 -130 31 -150 64 -36 56 -27 150 20 205
25 30 101 71 131 71 8 0 49 20 92 45 43 25 92 48 110 51 28 6 36 2 70 -33 33
-35 42 -56 71 -164 28 -105 34 -146 38 -269 4 -138 3 -146 -17 -164 -31 -28
-28 -78 8 -119 23 -26 32 -48 39 -100 l9 -67 -134 0 c-133 0 -135 0 -179 30
-24 17 -44 29 -44 26 0 -3 17 -17 37 -31 l38 -25 -279 0 -279 0 24 27 24 28
-26 -22 c-23 -21 -35 -23 -137 -23 l-112 0 -6 29 c-7 36 -28 32 -49 -9 -13
-26 -13 -28 5 -33 31 -8 301 -12 787 -12 335 0 446 4 455 13 9 9 9 12 -4 12
-9 0 -31 23 -48 51 -18 27 -49 61 -68 74 -39 26 -72 71 -72 97 0 9 10 24 22
32 15 11 18 16 8 16 -24 1 20 30 45 30 30 0 64 -27 47 -38 -8 -6 3 -16 39 -32
72 -34 99 -69 99 -131 0 -52 15 -66 26 -24 9 38 -4 104 -28 143 -21 33 -84 71
-120 72 -16 0 -18 11 -18 93 0 131 -17 312 -35 382 -23 86 -50 138 -100 190
-24 24 -41 46 -37 49 4 2 33 7 64 10 51 7 62 12 93 49 19 22 34 46 32 51 -4
11 -129 55 -159 55 -14 1 -16 7 -12 29 4 19 0 35 -13 51 l-19 24 -45 -20 c-24
-11 -53 -30 -63 -42 -11 -11 -27 -21 -36 -21 -10 0 -23 -7 -31 -16 -10 -13
-10 -17 2 -24 11 -7 11 -12 2 -21 -20 -20 -26 -4 -26 62 1 38 -3 57 -9 51 -5
-5 -10 -19 -11 -31 -1 -20 -17 -28 -29 -15 -4 3 -2 20 3 37 9 32 4 68 -9 65
-4 -1 -50 20 -102 47 -181 94 -201 99 -268 63z m118 -23 c7 -8 18 -15 24 -15
12 0 164 -76 182 -91 6 -5 13 -6 17 -3 3 3 3 -3 0 -14 -2 -11 2 -33 10 -48 15
-27 14 -30 -8 -54 -13 -14 -25 -38 -27 -55 -2 -16 -10 -36 -18 -43 -13 -12
-13 -13 2 -8 10 3 20 0 24 -6 5 -7 -4 -9 -30 -4 -33 6 -50 -4 -28 -18 20 -12
142 30 142 49 0 7 7 16 16 19 14 5 15 4 4 -9 -10 -12 -10 -15 0 -15 9 0 9 -4
-1 -17 -12 -15 -12 -16 1 -8 13 8 13 7 1 -9 -8 -10 -23 -15 -33 -13 -10 3 -16
2 -13 -3 2 -4 -15 -15 -40 -24 -49 -19 -111 -15 -179 10 -38 15 -116 11 -116
-4 0 -4 -43 -5 -95 -4 -96 4 -118 -4 -70 -26 35 -16 43 -15 19 3 -17 13 -11
14 69 11 48 -2 87 0 87 5 0 9 60 6 147 -7 58 -9 43 -28 -16 -20 -30 4 -41 3
-32 -3 12 -8 10 -11 -10 -16 -81 -20 -279 -26 -378 -11 -40 6 -38 4 -46 39 -5
20 -3 27 7 27 8 0 18 -3 21 -7 4 -3 17 -7 30 -8 12 -1 33 -4 47 -8 14 -4 19
-4 12 -1 -6 3 -10 10 -6 15 3 5 -7 9 -23 9 -15 0 -39 3 -51 7 -21 5 -23 9 -16
42 4 20 7 46 7 58 -1 13 3 20 8 17 5 -3 9 6 9 21 0 19 21 46 86 108 113 108
169 146 215 147 21 0 42 -7 49 -15z m250 -152 c0 -22 -2 -25 -10 -13 -13 20
-13 40 0 40 6 0 10 -12 10 -27z m268 -33 c5 -61 -31 -130 -68 -130 -14 0 -42
-5 -64 -11 -53 -15 -64 -2 -42 53 20 51 52 90 98 118 52 32 72 24 76 -30z
m-220 -55 c4 -20 4 -20 -12 0 -16 20 -16 20 -41 -9 -28 -30 -30 -57 -5 -63 13
-4 13 -3 0 6 -13 9 -13 14 2 38 9 15 22 29 29 32 19 6 3 -71 -18 -87 -44 -32
-58 29 -17 77 29 35 57 37 62 6z m-795 -89 c18 -7 40 -23 51 -34 10 -12 21
-20 25 -18 3 2 7 -10 8 -28 2 -25 -5 -40 -32 -66 -40 -39 -52 -34 -84 34 -26
53 -28 126 -4 126 2 0 18 -6 36 -14z m6 -191 c-9 -8 -88 -9 -97 -1 -4 4 6 19
22 33 l29 25 25 -26 c14 -14 24 -28 21 -31z m1312 -670 c10 -20 10 -20 -6 0
-9 11 -19 20 -23 21 -4 0 -20 7 -35 14 -25 12 -27 15 -10 21 20 7 58 -21 74
-56z m-121 -175 c0 -3 -11 -7 -24 -8 -19 -1 -25 4 -28 28 -3 17 -2 33 1 36 5
5 51 -45 51 -56z"/>
<path d="M1005 1500 c3 -5 23 -10 44 -10 20 0 42 -5 48 -11 7 -7 13 -7 17 0 4
5 -10 14 -31 20 -48 14 -86 14 -78 1z"/>
<path d="M1397 1660 c-27 -22 -63 -78 -54 -86 2 -3 12 7 21 21 19 29 36 33 37
8 0 -11 7 -4 15 16 23 51 15 68 -19 41z"/>
<path d="M436 1468 c3 -13 14 -36 22 -53 16 -29 17 -29 20 -7 2 16 8 22 18 18
10 -4 13 -2 8 7 -15 26 -48 57 -61 57 -10 0 -12 -7 -7 -22z"/>
<path d="M1393 1794 c-20 -18 -22 -22 -7 -15 21 10 52 41 41 41 -3 0 -19 -12
-34 -26z"/>
<path d="M1286 1751 c-11 -12 -13 -21 -7 -25 5 -4 15 3 21 15 15 28 7 34 -14
10z"/>
<path d="M1164 1404 c-38 -31 -94 -81 -125 -111 -38 -36 -63 -54 -76 -51 -25
4 -28 -15 -3 -24 13 -5 30 2 54 21 56 45 239 221 229 221 -5 0 -40 -25 -79
-56z"/>
<path d="M439 1277 c-30 -49 -49 -124 -49 -193 0 -56 42 -302 55 -324 3 -4
-11 -17 -30 -29 -62 -36 -97 -163 -62 -223 20 -36 58 -67 73 -61 21 8 17 22
-6 16 -31 -8 -39 48 -15 122 4 14 2 13 -9 -5 -8 -14 -15 -38 -16 -53 0 -17 -4
-26 -10 -22 -7 4 -9 30 -7 63 4 49 9 60 42 91 21 19 31 31 22 28 -49 -20 -51
-19 -23 11 17 18 32 32 36 32 3 0 16 -38 30 -86 13 -47 27 -87 32 -90 11 -7
11 -9 -12 71 -12 39 -34 141 -50 227 -36 190 -39 294 -9 373 25 66 45 75 119
50 28 -9 53 -15 56 -13 4 4 -89 36 -127 43 -14 3 -26 -6 -40 -28z"/>
<path d="M977 1274 c-3 -4 -52 -10 -109 -14 l-103 -8 100 2 c55 1 109 7 120
14 11 6 15 12 9 12 -6 0 -13 -3 -17 -6z"/>
<path d="M1240 1242 c40 -20 79 -74 81 -111 1 -18 3 -21 6 -8 11 42 -62 137
-105 137 -9 0 -1 -8 18 -18z"/>
<path d="M569 1178 c-63 -49 -82 -80 -86 -140 -5 -64 23 -119 77 -156 29 -20
44 -23 93 -20 157 11 236 203 124 304 -25 23 -28 24 -11 4 55 -65 65 -152 24
-210 -42 -61 -77 -80 -145 -82 -115 -2 -180 114 -125 222 21 41 54 69 110 93
34 15 34 15 8 16 -15 1 -44 -12 -69 -31z"/>
<path d="M870 1200 c0 -12 27 -12 55 0 16 7 13 9 -17 9 -21 1 -38 -3 -38 -9z"/>
<path d="M1112 1084 c-29 -20 -28 -52 2 -65 50 -23 95 45 47 71 -25 13 -22 13
-49 -6z"/>
<path d="M1298 1034 c-15 -24 -25 -44 -23 -44 7 0 58 80 54 84 -2 2 -16 -16
-31 -40z"/>
<path d="M626 1017 c-11 -8 -17 -23 -14 -38 4 -31 55 -40 75 -13 17 23 16 29
-3 48 -19 19 -35 20 -58 3z"/>
<path d="M861 947 c-69 -25 -67 -75 5 -90 75 -16 162 35 131 77 -17 23 -90 30
-136 13z m-8 -32 c-10 -13 -21 -25 -25 -25 -15 0 -8 29 10 39 29 17 34 12 15
-14z m101 6 c3 -5 0 -13 -7 -19 -15 -13 -56 -20 -57 -9 -1 22 2 26 23 30 12 2
25 5 29 6 4 0 9 -3 12 -8z"/>
<path d="M1067 899 c37 -11 73 -52 73 -84 0 -58 -65 -84 -148 -58 -52 15 -102
9 -150 -18 -98 -56 -162 15 -89 97 26 30 28 35 9 25 -57 -30 -68 -108 -21
-143 22 -16 32 -18 61 -10 l36 10 5 -41 c7 -52 28 -67 93 -67 69 0 88 18 81
76 -4 41 -4 42 22 35 51 -14 105 16 117 65 13 50 -50 126 -103 123 -10 0 -4
-5 14 -10z m-146 -173 c5 3 7 10 4 15 -4 5 10 9 29 9 36 0 36 0 36 -44 0 -60
-8 -76 -36 -76 -18 0 -24 6 -25 23 -1 21 -1 21 -8 -2 -14 -52 -57 -28 -64 36
-4 38 -2 43 22 51 19 7 27 5 29 -5 2 -7 8 -11 13 -7z"/>
<path d="M1744 565 c6 -24 14 -41 19 -36 7 7 -16 81 -26 81 -2 0 1 -20 7 -45z"/>
<path d="M1780 508 c0 -4 -5 -8 -11 -8 -6 0 -17 -7 -25 -15 -14 -13 -12 -15
20 -15 42 0 89 17 82 29 -8 12 -66 20 -66 9z"/>
<path d="M1073 397 c-34 -7 -65 -16 -70 -20 -12 -12 26 -37 56 -37 14 0 33 -5
41 -10 30 -21 -16 -37 -125 -44 -58 -4 -112 -9 -120 -13 -25 -9 -11 -28 23
-31 44 -4 40 -20 -5 -24 -29 -3 -34 -6 -20 -12 25 -12 87 2 81 18 -4 10 2 12
20 9 14 -3 26 -9 26 -14 0 -5 16 -9 36 -9 30 0 34 3 25 14 -9 11 0 14 51 20
39 4 64 2 66 -4 5 -13 52 -13 52 -1 0 5 -6 12 -12 14 -7 3 -3 6 10 6 12 1 22
-3 22 -9 0 -5 11 -10 25 -10 14 0 25 5 25 10 0 6 -10 10 -21 10 -18 0 -19 2
-9 15 11 13 9 20 -9 39 l-22 23 26 17 c32 21 33 46 1 46 -13 0 -43 2 -67 4
-24 3 -72 -1 -106 -7z m89 -18 c16 -9 19 -8 12 3 -6 9 0 8 16 -3 16 -11 24
-24 22 -37 -2 -11 2 -23 8 -27 7 -4 7 -12 0 -24 -9 -18 -46 -27 -145 -37 -21
-2 -47 -7 -57 -10 -10 -3 -28 2 -40 10 -22 15 -21 16 25 16 56 0 117 23 117
44 0 8 -9 21 -21 29 -21 15 -21 15 8 30 15 8 29 15 31 16 2 1 13 -4 24 -10z
m-217 -119 c-3 -5 -18 -10 -33 -10 -21 0 -24 2 -12 10 20 13 53 13 45 0z"/>
<path d="M1410 306 c0 -9 5 -16 11 -16 5 0 7 6 4 13 -4 6 0 4 8 -6 10 -12 17
-15 22 -7 8 14 7 15 -22 24 -17 6 -23 3 -23 -8z"/>
<path d="M1470 307 c0 -13 7 -17 31 -15 37 3 47 14 19 21 -11 3 -23 1 -26 -5
-4 -6 -10 -5 -15 3 -7 11 -9 10 -9 -4z"/>
<path d="M1550 303 c0 -8 4 -12 9 -9 5 4 20 2 34 -3 14 -5 28 -7 31 -4 3 4 26
6 51 6 25 0 48 3 51 8 3 5 -1 9 -8 10 -137 7 -168 6 -168 -8z"/>
<path d="M1740 301 c0 -16 5 -17 52 -10 34 6 56 5 65 -3 10 -8 13 -6 13 9 0
17 -7 19 -45 18 -24 0 -47 -4 -51 -8 -11 -11 -26 -8 -19 3 3 6 1 10 -4 10 -6
0 -11 -8 -11 -19z"/>
<path d="M507 290 c-44 -24 -164 -58 -261 -74 -76 -13 -94 -30 -50 -46 38 -15
281 -17 295 -3 15 15 1 22 -55 29 -38 6 -46 4 -46 -10 0 -13 -12 -16 -72 -16
l-73 1 40 15 c22 8 54 16 72 17 17 2 37 8 45 14 18 15 83 29 202 43 55 7 110
16 123 21 46 17 11 29 -85 29 -78 0 -105 -4 -135 -20z"/>
<path d="M1098 223 c12 -2 30 -2 40 0 9 3 -1 5 -23 4 -22 0 -30 -2 -17 -4z"/>
<path d="M86 175 c4 -8 13 -15 21 -15 8 0 11 -5 7 -12 -5 -8 3 -9 30 -5 22 3
34 2 31 -4 -8 -12 36 -11 55 1 11 7 8 10 -16 10 -17 0 -41 9 -54 20 -28 24
-82 28 -74 5z"/>
<path d="M251 131 c-7 -5 -9 -11 -5 -14 11 -6 102 7 111 16 10 10 -90 8 -106
-2z"/>
<path d="M383 130 c-28 -11 -30 -30 -4 -30 30 0 81 21 75 31 -7 11 -42 11 -71
-1z"/>
</g>
</svg>
