<?xml version="1.0" encoding="UTF-8" standalone="no"?>
<!DOCTYPE svg PUBLIC "-//W3C//DTD SVG 1.1//EN"
 "http://www.w3.org/Graphics/SVG/1.1/DTD/svg11.dtd">
<!-- Generated by graphviz version 2.38.0 (20140413.2041)
 -->
<!-- Title: serviceGraph Pages: 1 -->
<svg width="914pt" height="332pt"
 viewBox="0.00 0.00 914.08 332.00" xmlns="http://www.w3.org/2000/svg" xmlns:xlink="http://www.w3.org/1999/xlink">
<g id="graph0" class="graph" transform="scale(1 1) rotate(0) translate(4 328)">
<title>serviceGraph</title>
<polygon fill="white" stroke="none" points="-4,4 -4,-328 910.084,-328 910.084,4 -4,4"/>
<!-- cli_user1 -->
<g id="node1" class="node"><title>cli_user1</title>
<ellipse fill="none" stroke="black" cx="53.9452" cy="-306" rx="53.8905" ry="18"/>
<text text-anchor="middle" x="53.9452" y="-302.3" font-family="Times,serif" font-size="14.00">cli_user1</text>
</g>
<!-- postmaster -->
<g id="node2" class="node"><title>postmaster</title>
<ellipse fill="none" stroke="black" cx="342.945" cy="-234" rx="63.8893" ry="18"/>
<text text-anchor="middle" x="342.945" y="-230.3" font-family="Times,serif" font-size="14.00">postmaster</text>
</g>
<!-- cli_user1&#45;&gt;postmaster -->
<g id="edge1" class="edge"><title>cli_user1&#45;&gt;postmaster</title>
<path fill="none" stroke="black" d="M94.2233,-293.918C101.762,-291.904 109.585,-289.855 116.945,-288 173.802,-273.666 239.032,-258.506 284.751,-248.088"/>
<polygon fill="black" stroke="black" points="285.803,-251.439 294.778,-245.808 284.251,-244.613 285.803,-251.439"/>
</g>
<!-- postmaster&#45;&gt;postmaster -->
<g id="edge13" class="edge"><title>postmaster&#45;&gt;postmaster</title>
<path fill="none" stroke="black" d="M386.65,-247.233C406.925,-248.677 424.64,-244.266 424.64,-234 424.64,-225.499 412.491,-221.013 396.801,-220.541"/>
<polygon fill="black" stroke="black" points="396.57,-217.046 386.65,-220.767 396.726,-224.044 396.57,-217.046"/>
</g>
<!-- explicaboo -->
<g id="node5" class="node"><title>explicaboo</title>
<ellipse fill="none" stroke="black" cx="194.945" cy="-18" rx="37.8943" ry="18"/>
<text text-anchor="middle" x="194.945" y="-14.3" font-family="Times,serif" font-size="14.00">explicaboo</text>
</g>
<!-- postmaster&#45;&gt;explicaboo -->
<g id="edge11" class="edge"><title>postmaster&#45;&gt;explicaboo</title>
<path fill="none" stroke="black" d="M307.032,-218.926C265.542,-200.474 199.347,-163.751 170.945,-108 160.676,-87.8428 169.066,-62.8098 178.639,-44.4317"/>
<polygon fill="black" stroke="black" points="181.816,-45.922 183.661,-35.4889 175.713,-42.4947 181.816,-45.922"/>
</g>
<!-- ipsum-dolor -->
<g id="node7" class="node"><title>ipsum-dolor</title>
<ellipse fill="none" stroke="black" cx="342.945" cy="-162" rx="50.0912" ry="18"/>
<text text-anchor="middle" x="342.945" y="-158.3" font-family="Times,serif" font-size="14.00">ipsum-dolor</text>
</g>
<!-- postmaster&#45;&gt;ipsum-dolor -->
<g id="edge10" class="edge"><title>postmaster&#45;&gt;ipsum-dolor</title>
<path fill="none" stroke="black" d="M342.945,-215.697C342.945,-207.983 342.945,-198.712 342.945,-190.112"/>
<polygon fill="black" stroke="black" points="346.445,-190.104 342.945,-180.104 339.445,-190.104 346.445,-190.104"/>
</g>
<!-- modi-tempora -->
<g id="node9" class="node"><title>modi-tempora</title>
<ellipse fill="none" stroke="black" cx="675.945" cy="-162" rx="54.6905" ry="18"/>
<text text-anchor="middle" x="675.945" y="-158.3" font-family="Times,serif" font-size="14.00">modi-tempora</text>
</g>
<!-- postmaster&#45;&gt;modi-tempora -->
<g id="edge12" class="edge"><title>postmaster&#45;&gt;modi-tempora</title>
<path fill="none" stroke="black" d="M392.439,-222.596C453.749,-209.708 557.86,-187.823 621.412,-174.463"/>
<polygon fill="black" stroke="black" points="622.185,-177.878 631.251,-172.395 620.745,-171.027 622.185,-177.878"/>
</g>
<!-- cli_user2 -->
<g id="node3" class="node"><title>cli_user2</title>
<ellipse fill="none" stroke="black" cx="189.945" cy="-306" rx="63.8893" ry="18"/>
<text text-anchor="middle" x="189.945" y="-302.3" font-family="Times,serif" font-size="14.00">cli_user2</text>
</g>
<!-- cli_user2&#45;&gt;postmaster -->
<g id="edge2" class="edge"><title>cli_user2&#45;&gt;postmaster</title>
<path fill="none" stroke="black" d="M222.019,-290.326C245.174,-279.732 276.638,-265.337 301.667,-253.886"/>
<polygon fill="black" stroke="black" points="303.276,-256.998 310.914,-249.655 300.364,-250.633 303.276,-256.998"/>
</g>
<!-- voluptate -->
<g id="node4" class="node"><title>voluptate</title>
<ellipse fill="none" stroke="black" cx="237.945" cy="-90" rx="57.6901" ry="18"/>
<text text-anchor="middle" x="237.945" y="-86.3" font-family="Times,serif" font-size="14.00">voluptate</text>
</g>
<!-- voluptate&#45;&gt;explicaboo -->
<g id="edge3" class="edge"><title>voluptate&#45;&gt;explicaboo</title>
<path fill="none" stroke="black" d="M227.536,-72.055C222.466,-63.8006 216.262,-53.7014 210.633,-44.5378"/>
<polygon fill="black" stroke="black" points="213.475,-42.4778 205.258,-35.789 207.51,-46.1418 213.475,-42.4778"/>
</g>
<!-- health_agent -->
<g id="node6" class="node"><title>health_agent</title>
<ellipse fill="none" stroke="black" cx="342.945" cy="-306" rx="71.4873" ry="18"/>
<text text-anchor="middle" x="342.945" y="-302.3" font-family="Times,serif" font-size="14.00">health_agent</text>
</g>
<!-- health_agent&#45;&gt;postmaster -->
<g id="edge4" class="edge"><title>health_agent&#45;&gt;postmaster</title>
<path fill="none" stroke="black" d="M342.945,-287.697C342.945,-279.983 342.945,-270.712 342.945,-262.112"/>
<polygon fill="black" stroke="black" points="346.445,-262.104 342.945,-252.104 339.445,-262.104 346.445,-262.104"/>
</g>
<!-- ipsum-dolor&#45;&gt;voluptate -->
<g id="edge5" class="edge"><title>ipsum-dolor&#45;&gt;voluptate</title>
<path fill="none" stroke="black" d="M320.162,-145.811C305.505,-136.04 286.241,-123.197 270.045,-112.4"/>
<polygon fill="black" stroke="black" points="271.673,-109.279 261.411,-106.644 267.79,-115.103 271.673,-109.279"/>
</g>
<!-- exercitationem -->
<g id="node8" class="node"><title>exercitationem</title>
<ellipse fill="none" stroke="black" cx="476.945" cy="-90" rx="163.271" ry="18"/>
<text text-anchor="middle" x="476.945" y="-86.3" font-family="Times,serif" font-size="14.00">exercitationem</text>
</g>
<!-- ipsum-dolor&#45;&gt;exercitationem -->
<g id="edge6" class="edge"><title>ipsum-dolor&#45;&gt;exercitationem</title>
<path fill="none" stroke="black" d="M370.062,-146.834C388.932,-136.977 414.439,-123.653 435.802,-112.493"/>
<polygon fill="black" stroke="black" points="437.43,-115.591 444.673,-107.859 434.189,-109.387 437.43,-115.591"/>
</g>
<!-- accusantium -->
<g id="node10" class="node"><title>accusantium</title>
<ellipse fill="none" stroke="black" cx="781.945" cy="-90" rx="124.278" ry="18"/>
<text text-anchor="middle" x="781.945" y="-86.3" font-family="Times,serif" font-size="14.00">accusantium</text>
</g>
<!-- modi-tempora&#45;&gt;accusantium -->
<g id="edge7" class="edge"><title>modi-tempora&#45;&gt;accusantium</title>
<path fill="none" stroke="black" d="M699.207,-145.638C713.502,-136.198 732.065,-123.94 747.984,-113.427"/>
<polygon fill="black" stroke="black" points="750.096,-116.227 756.512,-107.795 746.239,-110.385 750.096,-116.227"/>
</g>
<!-- cfgtools -->
<g id="node11" class="node"><title>cfgtools</title>
<ellipse fill="none" stroke="black" cx="538.945" cy="-306" rx="106.681" ry="18"/>
<text text-anchor="middle" x="538.945" y="-302.3" font-family="Times,serif" font-size="14.00">cfgtools</text>
</g>
<!-- cfgtools&#45;&gt;postmaster -->
<g id="edge8" class="edge"><title>cfgtools&#45;&gt;postmaster</title>
<path fill="none" stroke="black" d="M495.446,-289.465C464.376,-278.368 422.588,-263.444 390.612,-252.024"/>
<polygon fill="black" stroke="black" points="391.621,-248.668 381.027,-248.6 389.267,-255.26 391.621,-248.668"/>
</g>
<!-- tcheck -->
<g id="node12" class="node"><title>tcheck</title>
<ellipse fill="none" stroke="black" cx="705.945" cy="-306" rx="42.4939" ry="18"/>
<text text-anchor="middle" x="705.945" y="-302.3" font-family="Times,serif" font-size="14.00">tcheck</text>
</g>
<!-- tcheck&#45;&gt;postmaster -->
<g id="edge9" class="edge"><title>tcheck&#45;&gt;postmaster</title>
<path fill="none" stroke="black" d="M674.61,-293.716C668.159,-291.631 661.374,-289.607 654.945,-288 571.761,-267.201 474.049,-252.065 410.435,-243.416"/>
<polygon fill="black" stroke="black" points="410.513,-239.895 400.136,-242.032 409.581,-246.833 410.513,-239.895"/>
</g>
</g>
</svg>

